PathFileType	4	(X/Y/Z)	D:\TRACE\v60_Jaco2_6-2-23\v60_baseline_1-platform.trc
DataRate	CameraRate	NumFrames	NumMarkers	Units	OrigDataRate	OrigDataStartFrame	OrigNumFrames
100.00	100.00	      30	5	mm	100.00	5470	      6251
Frame#	Time	Left_Front			Right_Front			Left_Aft			Right_Aft			Post			
		X1	Y1	Z1	X2	Y2	Z2	X3	Y3	Z3	X4	Y4	Z4	X5	Y5	Z5	

5470	54.690	-800.16675	7.94997	-639.01532	769.44067	10.14187	-644.39661	-708.73749	8.09966	496.17517	733.56049	6.88689	505.74902	-14.12222	1308.20081	-962.11664	
5471	54.700	-800.20087	8.06523	-639.06140	769.42950	10.03610	-644.34216	-708.70087	7.98455	496.08664	733.57928	6.98012	505.73471	-14.05258	1308.14490	-962.08832	
5472	54.710	-800.24133	8.13321	-639.06726	769.38074	10.07895	-644.40387	-708.77307	7.93427	495.99033	733.51636	6.90710	505.73697	-13.96977	1308.04602	-962.09705	
5473	54.720	-800.15814	8.31353	-638.92047	769.29889	10.24805	-644.45148	-708.58362	7.72996	496.17554	733.54565	6.83245	505.77417	-13.96000	1308.06335	-962.18903	
5474	54.730	-800.12170	8.46876	-638.89624	769.40576	10.26230	-644.40540	-708.59399	7.78499	496.18558	733.52283	6.86660	505.80270	-14.08061	1308.23645	-962.20355	
5475	54.740	-800.07050	8.31418	-638.88129	769.43658	10.25263	-644.42999	-708.58960	7.88337	496.19653	733.57709	6.88467	505.80246	-14.16003	1308.31482	-962.12451	
5476	54.750	-800.13470	8.01879	-639.04120	769.39594	10.26374	-644.48175	-708.57916	7.89009	496.18863	733.66034	6.91683	505.98441	-14.16232	1308.26001	-961.92389	
5477	54.760	-800.61078	8.67524	-638.85620	769.39740	10.17650	-644.42072	-708.62750	7.75400	496.12836	733.73474	7.03497	506.20859	-14.02455	1308.04517	-961.63287	
5478	54.770	-800.59534	8.79910	-638.83179	769.27466	10.15195	-644.43268	-708.56580	7.59234	496.15259	733.64362	6.91485	506.16824	-14.09414	1308.03430	-961.54163	
5479	54.780	-800.54895	8.97737	-638.75598	769.28796	10.17564	-644.43414	-708.50940	7.65605	496.23016	733.59540	6.85096	506.30087	-14.06710	1308.04895	-961.55627	
5480	54.790	-800.60736	9.01818	-638.64331	769.36511	10.20987	-644.44409	-708.44299	7.67264	496.25540	733.63037	6.81501	506.46130	-14.19269	1308.13245	-961.70593	
5481	54.800	-800.68634	8.87822	-638.69714	769.35651	10.30464	-644.48187	-708.21167	7.33210	496.41464	733.73834	6.94565	506.66388	-14.12932	1308.20752	-961.92395	
5482	54.810	-800.65027	8.78943	-638.82129	769.39325	10.21856	-644.48212	-708.50281	7.70187	496.10886	733.82947	7.00107	506.68463	-14.04347	1308.19556	-962.08966	
5483	54.820	-800.62445	8.74290	-638.86542	769.39484	10.15657	-644.42865	-708.50250	7.56017	496.18451	733.81049	6.96029	506.69650	-13.95191	1308.11084	-962.17413	
5484	54.830	-800.58978	8.91608	-638.74384	769.28778	10.16646	-644.43927	-708.56476	7.70992	496.24640	733.68805	6.82364	506.62817	-13.98532	1308.05176	-962.16241	
5485	54.840	-800.50708	8.85956	-638.78247	769.36188	10.19561	-644.37701	-708.59955	7.82756	496.28021	733.62378	6.80176	506.58426	-14.06672	1308.13208	-962.19849	
5486	54.850	-800.58868	8.94262	-638.75818	769.42285	10.23694	-644.39319	-708.54480	7.86304	496.21384	733.65454	6.83126	506.46988	-14.09369	1308.20813	-962.17084	
5487	54.860	-800.61139	8.92006	-638.79016	769.41461	10.28265	-644.45880	-708.46643	7.68183	496.26047	733.31543	6.63806	506.16299	-14.12138	1308.26709	-962.00714	
5488	54.870	-800.64429	8.80481	-638.84229	769.40063	10.22815	-644.40912	-708.46613	7.60418	496.23450	733.25537	6.56491	506.12659	-14.11552	1308.17871	-961.75922	
5489	54.880	-800.57751	8.73253	-638.87970	769.34070	10.16344	-644.45679	-708.59521	7.59565	496.03394	733.03601	6.71424	506.47717	-14.16869	1308.09583	-961.61859	
5490	54.890	-800.55817	8.81736	-638.86523	769.39612	10.12923	-644.42877	-708.45996	7.57120	496.21057	733.66040	6.86698	506.27884	-14.12969	1308.08301	-961.60089	
5491	54.900	-800.61273	8.94829	-638.75244	769.35706	10.18100	-644.43311	-708.45404	7.66075	496.29123	733.74396	7.00031	506.17874	-14.16156	1308.16357	-961.65662	
5492	54.910	-800.57910	8.98021	-638.73798	769.40222	10.27542	-644.41486	-708.46326	7.63995	496.27164	733.75769	6.98943	506.16055	-14.06779	1308.18494	-961.90540	
5493	54.920	-800.63025	8.93387	-638.75110	769.36670	10.26093	-644.49084	-708.47040	7.62102	496.31808	733.67560	6.93254	506.15982	-14.11593	1308.28223	-962.02631	
5494	54.930	-800.57910	8.78310	-638.83148	769.35938	10.22030	-644.47162	-708.48987	7.56741	496.26324	733.66199	6.90311	506.10214	-14.11038	1308.19666	-962.07404	
5495	54.940	-800.58002	8.72436	-638.85986	769.37463	10.18554	-644.44244	-708.43762	7.52065	496.24283	733.55847	6.89173	505.91907	-14.04566	1308.11938	-962.09235	
5496	54.950	-800.59766	8.86936	-638.84076	769.32666	10.19665	-644.38184	-708.46082	7.58560	496.24951	733.49994	6.84862	505.80362	-13.99847	1308.06982	-962.08038	
5497	54.960	-800.59015	8.93086	-638.73816	769.31006	10.24624	-644.44391	-708.47705	7.64857	496.26266	733.53833	6.91777	505.78055	-14.03151	1308.11499	-962.09448	
5498	54.970	-800.65131	8.96334	-638.74139	769.39624	10.26305	-644.41010	-708.47388	7.65879	496.28073	733.51495	6.90410	505.70654	-14.05127	1308.17627	-962.04504	
5499	54.980	-800.62030	8.79099	-638.75403	769.41278	10.24390	-644.47723	-708.47369	7.64165	496.28101	733.47656	6.89729	505.75259	-14.05800	1308.15601	-961.95563	
